<svg xmlns="http://www.w3.org/2000/svg" width="20" height="11" viewBox="0 0 20 11"><g><g><path d="M19.805 1.129L18.803.183a.654.654 0 0 0-.923 0L10 7.618 2.12.183a.654.654 0 0 0-.922 0L.195 1.13a.583.583 0 0 0-.2.435c0 .164.066.31.2.435l9.344 8.816a.653.653 0 0 0 .922 0L19.805 2a.583.583 0 0 0 .2-.435.584.584 0 0 0-.2-.435z"/><path fill="#ff4200" d="M19.805 1.129L18.803.183a.654.654 0 0 0-.923 0L10 7.618 2.12.183a.654.654 0 0 0-.922 0L.195 1.13a.583.583 0 0 0-.2.435c0 .164.066.31.2.435l9.344 8.816a.653.653 0 0 0 .922 0L19.805 2a.583.583 0 0 0 .2-.435.584.584 0 0 0-.2-.435z"/></g></g></svg>