<svg xmlns="http://www.w3.org/2000/svg" width="16" height="9" viewBox="0 0 16 9"><g><g><path d="M15.844.924L15.042.15a.517.517 0 0 0-.738 0L8 6.233 1.696.15a.517.517 0 0 0-.738 0L.156.924a.481.481 0 0 0-.16.356.48.48 0 0 0 .16.356l7.475 7.213a.515.515 0 0 0 .738 0l7.475-7.213a.482.482 0 0 0 .16-.356.482.482 0 0 0-.16-.356z"/><path fill="#fff" d="M15.844.924L15.042.15a.517.517 0 0 0-.738 0L8 6.233 1.696.15a.517.517 0 0 0-.738 0L.156.924a.481.481 0 0 0-.16.356.48.48 0 0 0 .16.356l7.475 7.213a.515.515 0 0 0 .738 0l7.475-7.213a.482.482 0 0 0 .16-.356.482.482 0 0 0-.16-.356z"/></g></g></svg>