<svg xmlns="http://www.w3.org/2000/svg" width="20" height="30" viewBox="0 0 20 30"><g><g><path d="M9.996 14.997c-1.38 0-2.557-.488-3.534-1.464-.976-.976-1.464-2.154-1.464-3.534s.488-2.558 1.464-3.534c.977-.976 2.154-1.464 3.534-1.464s2.558.488 3.534 1.464 1.465 2.154 1.465 3.534-.489 2.558-1.465 3.534c-.976.976-2.154 1.464-3.534 1.464zm7.068-12.066C15.112.98 12.756.003 9.996.003S4.881.979 2.93 2.93C.976 4.883-.001 7.24-.001 10c0 1.419.216 2.584.645 3.495l7.127 15.112c.195.43.497.768.907 1.015.41.247.85.371 1.318.371a2.51 2.51 0 0 0 1.318-.371 2.37 2.37 0 0 0 .928-1.015l7.106-15.112c.43-.911.645-2.076.645-3.495 0-2.76-.976-5.116-2.929-7.068z"/><path fill="#fff" d="M9.996 14.997c-1.38 0-2.557-.488-3.534-1.464-.976-.976-1.464-2.154-1.464-3.534s.488-2.558 1.464-3.534c.977-.976 2.154-1.464 3.534-1.464s2.558.488 3.534 1.464 1.465 2.154 1.465 3.534-.489 2.558-1.465 3.534c-.976.976-2.154 1.464-3.534 1.464zm7.068-12.066C15.112.98 12.756.003 9.996.003S4.881.979 2.93 2.93C.976 4.883-.001 7.24-.001 10c0 1.419.216 2.584.645 3.495l7.127 15.112c.195.43.497.768.907 1.015.41.247.85.371 1.318.371a2.51 2.51 0 0 0 1.318-.371 2.37 2.37 0 0 0 .928-1.015l7.106-15.112c.43-.911.645-2.076.645-3.495 0-2.76-.976-5.116-2.929-7.068z"/></g></g></svg>