<svg xmlns="http://www.w3.org/2000/svg" width="30" height="30" viewBox="0 0 30 30"><g><g><path d="M29.93 23.247c-.084-.256-.624-.632-1.618-1.13a52.58 52.58 0 0 0-1.15-.639c-.498-.269-.948-.518-1.353-.745a44.193 44.193 0 0 1-1.14-.66 26.743 26.743 0 0 0-.533-.373 5.989 5.989 0 0 0-.756-.458c-.206-.1-.408-.15-.607-.15-.284 0-.639.203-1.065.608-.426.404-.817.845-1.172 1.32a12.86 12.86 0 0 1-1.129 1.321c-.398.405-.724.607-.98.607-.128 0-.287-.035-.48-.106a4.545 4.545 0 0 1-.436-.181c-.1-.05-.27-.15-.511-.298-.242-.15-.377-.231-.405-.245-1.946-1.08-3.614-2.315-5.006-3.707-1.392-1.392-2.628-3.06-3.707-5.006A13.031 13.031 0 0 0 7.637 13a7.61 7.61 0 0 1-.298-.512 4.527 4.527 0 0 1-.181-.436 1.434 1.434 0 0 1-.107-.48c0-.255.203-.582.607-.98.405-.397.845-.773 1.321-1.129.476-.354.916-.745 1.321-1.171.405-.426.607-.781.607-1.065 0-.199-.05-.402-.149-.608a6.01 6.01 0 0 0-.458-.756c-.206-.298-.33-.476-.373-.533a44.532 44.532 0 0 1-.66-1.14c-.228-.404-.476-.854-.746-1.352-.27-.497-.483-.88-.639-1.15C7.385.694 7.01.154 6.753.068c-.1-.042-.249-.063-.447-.063-.384 0-.885.071-1.502.213-.618.142-1.105.291-1.46.447-.71.299-1.463 1.165-2.258 2.6C.362 4.598 0 5.92 0 7.226c0 .383.024.756.074 1.118.05.362.139.77.267 1.225.127.455.23.792.309 1.012.077.22.223.614.436 1.182s.341.916.384 1.044c.497 1.392 1.086 2.635 1.768 3.728 1.122 1.818 2.652 3.696 4.59 5.635 1.94 1.938 3.817 3.469 5.635 4.59 1.094.682 2.337 1.272 3.729 1.769.127.042.475.17 1.043.383s.962.36 1.183.437c.22.078.557.181 1.012.309.454.128.862.217 1.225.266.362.05.735.075 1.118.075 1.307 0 2.627-.362 3.963-1.087 1.434-.795 2.3-1.548 2.598-2.258.157-.355.306-.841.448-1.46.142-.617.213-1.118.213-1.5 0-.2-.021-.349-.064-.448z"/><path fill="#fff" d="M29.93 23.247c-.084-.256-.624-.632-1.618-1.13a52.58 52.58 0 0 0-1.15-.639c-.498-.269-.948-.518-1.353-.745a44.193 44.193 0 0 1-1.14-.66 26.743 26.743 0 0 0-.533-.373 5.989 5.989 0 0 0-.756-.458c-.206-.1-.408-.15-.607-.15-.284 0-.639.203-1.065.608-.426.404-.817.845-1.172 1.32a12.86 12.86 0 0 1-1.129 1.321c-.398.405-.724.607-.98.607-.128 0-.287-.035-.48-.106a4.545 4.545 0 0 1-.436-.181c-.1-.05-.27-.15-.511-.298-.242-.15-.377-.231-.405-.245-1.946-1.08-3.614-2.315-5.006-3.707-1.392-1.392-2.628-3.06-3.707-5.006A13.031 13.031 0 0 0 7.637 13a7.61 7.61 0 0 1-.298-.512 4.527 4.527 0 0 1-.181-.436 1.434 1.434 0 0 1-.107-.48c0-.255.203-.582.607-.98.405-.397.845-.773 1.321-1.129.476-.354.916-.745 1.321-1.171.405-.426.607-.781.607-1.065 0-.199-.05-.402-.149-.608a6.01 6.01 0 0 0-.458-.756c-.206-.298-.33-.476-.373-.533a44.532 44.532 0 0 1-.66-1.14c-.228-.404-.476-.854-.746-1.352-.27-.497-.483-.88-.639-1.15C7.385.694 7.01.154 6.753.068c-.1-.042-.249-.063-.447-.063-.384 0-.885.071-1.502.213-.618.142-1.105.291-1.46.447-.71.299-1.463 1.165-2.258 2.6C.362 4.598 0 5.92 0 7.226c0 .383.024.756.074 1.118.05.362.139.77.267 1.225.127.455.23.792.309 1.012.077.22.223.614.436 1.182s.341.916.384 1.044c.497 1.392 1.086 2.635 1.768 3.728 1.122 1.818 2.652 3.696 4.59 5.635 1.94 1.938 3.817 3.469 5.635 4.59 1.094.682 2.337 1.272 3.729 1.769.127.042.475.17 1.043.383s.962.36 1.183.437c.22.078.557.181 1.012.309.454.128.862.217 1.225.266.362.05.735.075 1.118.075 1.307 0 2.627-.362 3.963-1.087 1.434-.795 2.3-1.548 2.598-2.258.157-.355.306-.841.448-1.46.142-.617.213-1.118.213-1.5 0-.2-.021-.349-.064-.448z"/></g></g></svg>