<svg xmlns="http://www.w3.org/2000/svg" width="30" height="30" viewBox="0 0 30 30"><g><g><path d="M19.485 19.176l-7.028-3.515c.025-.286.039-.508.039-.664 0-.156-.014-.377-.04-.664l7.03-3.514c1.197 1.12 2.616 1.68 4.256 1.68 1.73 0 3.205-.61 4.422-1.826C29.38 9.456 29.99 7.982 29.99 6.25c0-1.73-.61-3.205-1.826-4.422C26.947.611 25.473.003 23.742.003c-1.732 0-3.206.608-4.423 1.825S17.494 4.52 17.494 6.25c0 .156.013.378.039.664l-7.029 3.514C9.306 9.31 7.888 8.75 6.248 8.75c-1.732 0-3.206.609-4.423 1.826S0 13.266 0 14.997c0 1.731.608 3.206 1.825 4.423s2.691 1.825 4.423 1.825c1.64 0 3.058-.56 4.256-1.68l7.029 3.515c-.026.287-.04.508-.04.664 0 1.731.61 3.206 1.826 4.423 1.217 1.216 2.691 1.825 4.423 1.825 1.73 0 3.205-.609 4.422-1.825 1.217-1.217 1.826-2.692 1.826-4.423 0-1.73-.61-3.205-1.826-4.422-1.217-1.217-2.691-1.826-4.422-1.826-1.64 0-3.06.56-4.257 1.68z"/><path fill="#fff" d="M19.485 19.176l-7.028-3.515c.025-.286.039-.508.039-.664 0-.156-.014-.377-.04-.664l7.03-3.514c1.197 1.12 2.616 1.68 4.256 1.68 1.73 0 3.205-.61 4.422-1.826C29.38 9.456 29.99 7.982 29.99 6.25c0-1.73-.61-3.205-1.826-4.422C26.947.611 25.473.003 23.742.003c-1.732 0-3.206.608-4.423 1.825S17.494 4.52 17.494 6.25c0 .156.013.378.039.664l-7.029 3.514C9.306 9.31 7.888 8.75 6.248 8.75c-1.732 0-3.206.609-4.423 1.826S0 13.266 0 14.997c0 1.731.608 3.206 1.825 4.423s2.691 1.825 4.423 1.825c1.64 0 3.058-.56 4.256-1.68l7.029 3.515c-.026.287-.04.508-.04.664 0 1.731.61 3.206 1.826 4.423 1.217 1.216 2.691 1.825 4.423 1.825 1.73 0 3.205-.609 4.422-1.825 1.217-1.217 1.826-2.692 1.826-4.423 0-1.73-.61-3.205-1.826-4.422-1.217-1.217-2.691-1.826-4.422-1.826-1.64 0-3.06.56-4.257 1.68z"/></g></g></svg>